<svg width="17" height="16" viewBox="0 0 17 16" fill="none" xmlns="http://www.w3.org/2000/svg">
<path d="M1.5 3.5C1.5 2.83696 1.76339 2.20107 2.23223 1.73223C2.70107 1.26339 3.33696 1 4 1H8C8.66304 1 9.29893 1.26339 9.76777 1.73223C10.2366 2.20107 10.5 2.83696 10.5 3.5V4H9.5V3.5C9.5 3.10218 9.34196 2.72064 9.06066 2.43934C8.77936 2.15804 8.39782 2 8 2H4C3.60218 2 3.22064 2.15804 2.93934 2.43934C2.65804 2.72064 2.5 3.10218 2.5 3.5V7.5C2.5 7.89782 2.65804 8.27936 2.93934 8.56066C3.22064 8.84196 3.60218 9 4 9H9.585C9.70295 8.66639 9.93503 8.38522 10.2402 8.20618C10.5454 8.02715 10.9041 7.96177 11.2529 8.0216C11.6016 8.08144 11.918 8.26264 12.1461 8.53317C12.3741 8.8037 12.4992 9.14616 12.4992 9.5C12.4992 9.85384 12.3741 10.1963 12.1461 10.4668C11.918 10.7374 11.6016 10.9186 11.2529 10.9784C10.9041 11.0382 10.5454 10.9729 10.2402 10.7938C9.93503 10.6148 9.70295 10.3336 9.585 10H4C3.33696 10 2.70107 9.73661 2.23223 9.26777C1.76339 8.79893 1.5 8.16304 1.5 7.5V3.5ZM10.5 9.5C10.5 9.63261 10.5527 9.75979 10.6464 9.85355C10.7402 9.94732 10.8674 10 11 10C11.1326 10 11.2598 9.94732 11.3536 9.85355C11.4473 9.75979 11.5 9.63261 11.5 9.5C11.5 9.36739 11.4473 9.24021 11.3536 9.14645C11.2598 9.05268 11.1326 9 11 9C10.8674 9 10.7402 9.05268 10.6464 9.14645C10.5527 9.24021 10.5 9.36739 10.5 9.5ZM6.5 11V11.5C6.5 12.163 6.76339 12.7989 7.23223 13.2678C7.70107 13.7366 8.33696 14 9 14H13C13.663 14 14.2989 13.7366 14.7678 13.2678C15.2366 12.7989 15.5 12.163 15.5 11.5V7.5C15.5 6.83696 15.2366 6.20107 14.7678 5.73223C14.2989 5.26339 13.663 5 13 5H7.415C7.29705 4.66639 7.06497 4.38522 6.75976 4.20618C6.45455 4.02715 6.09588 3.96177 5.74713 4.0216C5.39839 4.08144 5.08202 4.26264 4.85395 4.53317C4.62588 4.8037 4.50079 5.14616 4.50079 5.5C4.50079 5.85384 4.62588 6.1963 4.85395 6.46683C5.08202 6.73736 5.39839 6.91856 5.74713 6.9784C6.09588 7.03823 6.45455 6.97285 6.75976 6.79382C7.06497 6.61478 7.29705 6.33361 7.415 6H13C13.3978 6 13.7794 6.15804 14.0607 6.43934C14.342 6.72064 14.5 7.10218 14.5 7.5V11.5C14.5 11.8978 14.342 12.2794 14.0607 12.5607C13.7794 12.842 13.3978 13 13 13H9C8.60218 13 8.22064 12.842 7.93934 12.5607C7.65804 12.2794 7.5 11.8978 7.5 11.5V11H6.5ZM6 5C6.13261 5 6.25979 5.05268 6.35355 5.14645C6.44732 5.24021 6.5 5.36739 6.5 5.5C6.5 5.63261 6.44732 5.75979 6.35355 5.85355C6.25979 5.94732 6.13261 6 6 6C5.86739 6 5.74021 5.94732 5.64645 5.85355C5.55268 5.75979 5.5 5.63261 5.5 5.5C5.5 5.36739 5.55268 5.24021 5.64645 5.14645C5.74021 5.05268 5.86739 5 6 5Z" fill="#3A4753"/>
</svg>
