<svg width="17" height="16" viewBox="0 0 17 16" fill="none" xmlns="http://www.w3.org/2000/svg">
<path d="M2.16699 8.00033C2.16699 5.01499 2.16699 3.52166 3.09433 2.59433C4.02166 1.66699 5.51433 1.66699 8.50033 1.66699C11.4857 1.66699 12.979 1.66699 13.9063 2.59433C14.8337 3.52166 14.8337 5.01433 14.8337 8.00033C14.8337 10.9857 14.8337 12.479 13.9063 13.4063C12.979 14.3337 11.4863 14.3337 8.50033 14.3337C5.51499 14.3337 4.02166 14.3337 3.09433 13.4063C2.16699 12.479 2.16699 10.9863 2.16699 8.00033Z" stroke="#3A4753" stroke-linecap="round" stroke-linejoin="round"/>
<path d="M8.50586 7.00566C8.24064 7.00566 7.98629 7.11102 7.79875 7.29855C7.61122 7.48609 7.50586 7.74044 7.50586 8.00566C7.50586 8.27088 7.61122 8.52523 7.79875 8.71277C7.98629 8.9003 8.24064 9.00566 8.50586 9.00566C8.77108 9.00566 9.02543 8.9003 9.21297 8.71277C9.4005 8.52523 9.50586 8.27088 9.50586 8.00566C9.50586 7.74044 9.4005 7.48609 9.21297 7.29855C9.02543 7.11102 8.77108 7.00566 8.50586 7.00566ZM8.50586 7.00566V4.66699M10.5105 10.0137L9.21119 8.71499" stroke="#3A4753" stroke-linecap="round" stroke-linejoin="round"/>
</svg>
