<svg width="18" height="18" viewBox="0 0 18 18" fill="none" xmlns="http://www.w3.org/2000/svg">
<path d="M5.5 3.4C5.5 3.0287 5.6475 2.6726 5.91005 2.41005C6.1726 2.1475 6.5287 2 6.9 2H11.1C11.4713 2 11.8274 2.1475 12.0899 2.41005C12.3525 2.6726 12.5 3.0287 12.5 3.4V4.8H15.3C15.4857 4.8 15.6637 4.87375 15.795 5.00503C15.9263 5.1363 16 5.31435 16 5.5C16 5.68565 15.9263 5.8637 15.795 5.99497C15.6637 6.12625 15.4857 6.2 15.3 6.2H14.5517L13.9448 14.6994C13.9197 15.0526 13.7616 15.3832 13.5025 15.6245C13.2434 15.8658 12.9024 16 12.5483 16H5.451C5.0969 16 4.75595 15.8658 4.49682 15.6245C4.23769 15.3832 4.07964 15.0526 4.0545 14.6994L3.449 6.2H2.7C2.51435 6.2 2.3363 6.12625 2.20503 5.99497C2.07375 5.8637 2 5.68565 2 5.5C2 5.31435 2.07375 5.1363 2.20503 5.00503C2.3363 4.87375 2.51435 4.8 2.7 4.8H5.5V3.4ZM6.9 4.8H11.1V3.4H6.9V4.8ZM4.8518 6.2L5.4517 14.6H12.549L13.1489 6.2H4.8518ZM7.6 7.6C7.78565 7.6 7.9637 7.67375 8.09497 7.80503C8.22625 7.9363 8.3 8.11435 8.3 8.3V12.5C8.3 12.6857 8.22625 12.8637 8.09497 12.995C7.9637 13.1263 7.78565 13.2 7.6 13.2C7.41435 13.2 7.2363 13.1263 7.10503 12.995C6.97375 12.8637 6.9 12.6857 6.9 12.5V8.3C6.9 8.11435 6.97375 7.9363 7.10503 7.80503C7.2363 7.67375 7.41435 7.6 7.6 7.6ZM10.4 7.6C10.5857 7.6 10.7637 7.67375 10.895 7.80503C11.0262 7.9363 11.1 8.11435 11.1 8.3V12.5C11.1 12.6857 11.0262 12.8637 10.895 12.995C10.7637 13.1263 10.5857 13.2 10.4 13.2C10.2143 13.2 10.0363 13.1263 9.90503 12.995C9.77375 12.8637 9.7 12.6857 9.7 12.5V8.3C9.7 8.11435 9.77375 7.9363 9.90503 7.80503C10.0363 7.67375 10.2143 7.6 10.4 7.6Z" fill="#007BF7"/>
</svg>
