<svg width="17" height="16" viewBox="0 0 17 16" fill="none" xmlns="http://www.w3.org/2000/svg">
<g clip-path="url(#clip0_9_18302)">
<path d="M3.81397 10.1431H13.1854C13.8841 10.1431 14.5541 10.4206 15.0481 10.9147C15.5421 11.4087 15.8197 12.0787 15.8197 12.7774C15.8197 13.476 15.5421 14.1461 15.0481 14.6401C14.5541 15.1341 13.8841 15.4117 13.1854 15.4117H3.81397C3.11532 15.4117 2.44528 15.1341 1.95125 14.6401C1.45723 14.1461 1.17969 13.476 1.17969 12.7774C1.17969 12.0787 1.45723 11.4087 1.95125 10.9147C2.44528 10.4206 3.11532 10.1431 3.81397 10.1431ZM12.4368 1.70996H4.43683C4.03569 1.70996 3.70997 2.00025 3.70997 2.3591V9.49396C3.70997 9.85282 4.03569 10.1431 4.43683 10.1431H12.4368C12.838 10.1431 13.1637 9.85282 13.1637 9.49396V2.3591C13.1637 2.00025 12.838 1.70996 12.4368 1.70996Z" stroke="#3A4753" stroke-width="1.14286" stroke-linecap="round" stroke-linejoin="round"/>
<path d="M9.89157 1.71013V4.95356C9.89094 4.99699 9.88114 5.0398 9.86283 5.07919C9.84451 5.11858 9.81809 5.15366 9.78528 5.18213C9.7141 5.24434 9.62267 5.27847 9.52814 5.27813H7.34528C7.25128 5.27851 7.16033 5.24481 7.08928 5.18327C7.05647 5.1548 7.03005 5.11972 7.01173 5.08033C6.99342 5.04094 6.98362 4.99813 6.98299 4.9547V1.70898M4.76814 13.0633C4.69236 13.0633 4.61969 13.0332 4.56611 12.9796C4.51252 12.926 4.48242 12.8533 4.48242 12.7776C4.48242 12.7018 4.51252 12.6291 4.56611 12.5755C4.61969 12.5219 4.69236 12.4918 4.76814 12.4918C4.84391 12.4918 4.91659 12.5219 4.97017 12.5755C5.02375 12.6291 5.05385 12.7018 5.05385 12.7776C5.05385 12.8533 5.02375 12.926 4.97017 12.9796C4.91659 13.0332 4.84391 13.0633 4.76814 13.0633ZM8.49957 13.0633C8.42379 13.0633 8.35112 13.0332 8.29753 12.9796C8.24395 12.926 8.21385 12.8533 8.21385 12.7776C8.21385 12.7018 8.24395 12.6291 8.29753 12.5755C8.35112 12.5219 8.42379 12.4918 8.49957 12.4918C8.57534 12.4918 8.64801 12.5219 8.7016 12.5755C8.75518 12.6291 8.78528 12.7018 8.78528 12.7776C8.78528 12.8533 8.75518 12.926 8.7016 12.9796C8.64801 13.0332 8.57534 13.0633 8.49957 13.0633ZM12.231 13.0633C12.1552 13.0633 12.0825 13.0332 12.029 12.9796C11.9754 12.926 11.9453 12.8533 11.9453 12.7776C11.9453 12.7018 11.9754 12.6291 12.029 12.5755C12.0825 12.5219 12.1552 12.4918 12.231 12.4918C12.3068 12.4918 12.3794 12.5219 12.433 12.5755C12.4866 12.6291 12.5167 12.7018 12.5167 12.7776C12.5167 12.8533 12.4866 12.926 12.433 12.9796C12.3794 13.0332 12.3068 13.0633 12.231 13.0633Z" stroke="#3A4753" stroke-width="1.14286" stroke-linecap="round" stroke-linejoin="round"/>
</g>
<defs>
<clipPath id="clip0_9_18302">
<rect width="16" height="16" fill="white" transform="translate(0.5)"/>
</clipPath>
</defs>
</svg>
