<svg width="17" height="16" viewBox="0 0 17 16" fill="none" xmlns="http://www.w3.org/2000/svg">
<path d="M5.16701 7.66668C5.29961 7.66668 5.42679 7.614 5.52056 7.52024C5.61433 7.42647 5.66701 7.29929 5.66701 7.16668C5.66701 7.03407 5.61433 6.9069 5.52056 6.81313C5.42679 6.71936 5.29961 6.66668 5.16701 6.66668C5.0344 6.66668 4.90722 6.71936 4.81345 6.81313C4.71968 6.9069 4.66701 7.03407 4.66701 7.16668C4.66701 7.29929 4.71968 7.42647 4.81345 7.52024C4.90722 7.614 5.0344 7.66668 5.16701 7.66668ZM7.33367 7.16668C7.33367 7.29929 7.28099 7.42647 7.18723 7.52024C7.09346 7.614 6.96628 7.66668 6.83367 7.66668C6.70106 7.66668 6.57389 7.614 6.48012 7.52024C6.38635 7.42647 6.33367 7.29929 6.33367 7.16668C6.33367 7.03407 6.38635 6.9069 6.48012 6.81313C6.57389 6.71936 6.70106 6.66668 6.83367 6.66668C6.96628 6.66668 7.09346 6.71936 7.18723 6.81313C7.28099 6.9069 7.33367 7.03407 7.33367 7.16668ZM6.00034 9.33335C6.13295 9.33335 6.26012 9.28067 6.35389 9.1869C6.44766 9.09313 6.50034 8.96596 6.50034 8.83335C6.50034 8.70074 6.44766 8.57356 6.35389 8.4798C6.26012 8.38603 6.13295 8.33335 6.00034 8.33335C5.86773 8.33335 5.74055 8.38603 5.64679 8.4798C5.55302 8.57356 5.50034 8.70074 5.50034 8.83335C5.50034 8.96596 5.55302 9.09313 5.64679 9.1869C5.74055 9.28067 5.86773 9.33335 6.00034 9.33335ZM8.16701 8.83335C8.16701 8.96596 8.11433 9.09313 8.02056 9.1869C7.92679 9.28067 7.79961 9.33335 7.66701 9.33335C7.5344 9.33335 7.40722 9.28067 7.31345 9.1869C7.21968 9.09313 7.16701 8.96596 7.16701 8.83335C7.16701 8.70074 7.21968 8.57356 7.31345 8.4798C7.40722 8.38603 7.5344 8.33335 7.66701 8.33335C7.79961 8.33335 7.92679 8.38603 8.02056 8.4798C8.11433 8.57356 8.16701 8.70074 8.16701 8.83335ZM9.33367 9.33335C9.46628 9.33335 9.59346 9.28067 9.68723 9.1869C9.78099 9.09313 9.83367 8.96596 9.83367 8.83335C9.83367 8.70074 9.78099 8.57356 9.68723 8.4798C9.59346 8.38603 9.46628 8.33335 9.33367 8.33335C9.20106 8.33335 9.07389 8.38603 8.98012 8.4798C8.88635 8.57356 8.83367 8.70074 8.83367 8.83335C8.83367 8.96596 8.88635 9.09313 8.98012 9.1869C9.07389 9.28067 9.20106 9.33335 9.33367 9.33335ZM11.5003 8.83335C11.5003 8.96596 11.4477 9.09313 11.3539 9.1869C11.2601 9.28067 11.1329 9.33335 11.0003 9.33335C10.8677 9.33335 10.7406 9.28067 10.6468 9.1869C10.553 9.09313 10.5003 8.96596 10.5003 8.83335C10.5003 8.70074 10.553 8.57356 10.6468 8.4798C10.7406 8.38603 10.8677 8.33335 11.0003 8.33335C11.1329 8.33335 11.2601 8.38603 11.3539 8.4798C11.4477 8.57356 11.5003 8.70074 11.5003 8.83335ZM8.50034 7.66668C8.63295 7.66668 8.76012 7.614 8.85389 7.52024C8.94766 7.42647 9.00034 7.29929 9.00034 7.16668C9.00034 7.03407 8.94766 6.9069 8.85389 6.81313C8.76012 6.71936 8.63295 6.66668 8.50034 6.66668C8.36773 6.66668 8.24055 6.71936 8.14679 6.81313C8.05302 6.9069 8.00034 7.03407 8.00034 7.16668C8.00034 7.29929 8.05302 7.42647 8.14679 7.52024C8.24055 7.614 8.36773 7.66668 8.50034 7.66668ZM10.667 7.16668C10.667 7.29929 10.6143 7.42647 10.5206 7.52024C10.4268 7.614 10.2996 7.66668 10.167 7.66668C10.0344 7.66668 9.90722 7.614 9.81345 7.52024C9.71968 7.42647 9.66701 7.29929 9.66701 7.16668C9.66701 7.03407 9.71968 6.9069 9.81345 6.81313C9.90722 6.71936 10.0344 6.66668 10.167 6.66668C10.2996 6.66668 10.4268 6.71936 10.5206 6.81313C10.6143 6.9069 10.667 7.03407 10.667 7.16668ZM11.8337 7.66668C11.9663 7.66668 12.0935 7.614 12.1872 7.52024C12.281 7.42647 12.3337 7.29929 12.3337 7.16668C12.3337 7.03407 12.281 6.9069 12.1872 6.81313C12.0935 6.71936 11.9663 6.66668 11.8337 6.66668C11.7011 6.66668 11.5739 6.71936 11.4801 6.81313C11.3864 6.9069 11.3337 7.03407 11.3337 7.16668C11.3337 7.29929 11.3864 7.42647 11.4801 7.52024C11.5739 7.614 11.7011 7.66668 11.8337 7.66668ZM3.77167 4.66602C3.49481 4.66604 3.22155 4.72876 2.9724 4.84948C2.72325 4.97021 2.50467 5.14579 2.33308 5.36306C2.16148 5.58033 2.04132 5.83364 1.98161 6.10398C1.92191 6.37433 1.92421 6.65469 1.98834 6.92402L2.70301 9.92468C2.79852 10.3258 3.02649 10.6831 3.35008 10.9387C3.67367 11.1943 4.07398 11.3333 4.48634 11.3333H12.5123C12.9245 11.3334 13.3247 11.1945 13.6483 10.9392C13.9718 10.6838 14.1999 10.3269 14.2957 9.92602L15.0117 6.92468C15.0758 6.65535 15.0781 6.375 15.0184 6.10465C14.9587 5.83431 14.8385 5.58099 14.6669 5.36373C14.4953 5.14646 14.2768 4.97087 14.0276 4.85015C13.7785 4.72943 13.5052 4.6667 13.2283 4.66668L3.77167 4.66602ZM2.96101 6.69268C2.93179 6.57018 2.93072 6.44265 2.95787 6.31967C2.98502 6.19669 3.0397 6.08147 3.11778 5.98266C3.19587 5.88385 3.29533 5.80403 3.4087 5.74918C3.52207 5.69434 3.6464 5.6659 3.77234 5.66602H13.2283C13.3542 5.666 13.4785 5.69451 13.5918 5.7494C13.705 5.80429 13.8044 5.88413 13.8824 5.98292C13.9604 6.08172 14.0151 6.19691 14.0422 6.31983C14.0693 6.44276 14.0682 6.57023 14.039 6.69268L13.323 9.69402C13.2795 9.87631 13.1759 10.0386 13.0288 10.1548C12.8817 10.2709 12.6997 10.334 12.5123 10.334H4.48634C4.29884 10.334 4.11683 10.2707 3.96973 10.1545C3.82262 10.0382 3.71902 9.87577 3.67567 9.69335L2.96101 6.69268Z" fill="#3A4753"/>
</svg>
