<svg width="17" height="16" viewBox="0 0 17 16" fill="none" xmlns="http://www.w3.org/2000/svg">
<path d="M13.1667 2.00033C13.5203 2.00033 13.8594 2.1408 14.1095 2.39085C14.3595 2.6409 14.5 2.98004 14.5 3.33366V12.667C14.5 13.0206 14.3595 13.3598 14.1095 13.6098C13.8594 13.8598 13.5203 14.0003 13.1667 14.0003H3.83333C3.47971 14.0003 3.14057 13.8598 2.89052 13.6098C2.64048 13.3598 2.5 13.0206 2.5 12.667V3.33366C2.5 2.98004 2.64048 2.6409 2.89052 2.39085C3.14057 2.1408 3.47971 2.00033 3.83333 2.00033H6.62C6.9 1.22699 7.63333 0.666992 8.5 0.666992C9.36667 0.666992 10.1 1.22699 10.38 2.00033H13.1667ZM8.5 2.00033C8.32319 2.00033 8.15362 2.07056 8.0286 2.19559C7.90357 2.32061 7.83333 2.49018 7.83333 2.66699C7.83333 2.8438 7.90357 3.01337 8.0286 3.1384C8.15362 3.26342 8.32319 3.33366 8.5 3.33366C8.67681 3.33366 8.84638 3.26342 8.9714 3.1384C9.09643 3.01337 9.16667 2.8438 9.16667 2.66699C9.16667 2.49018 9.09643 2.32061 8.9714 2.19559C8.84638 2.07056 8.67681 2.00033 8.5 2.00033ZM5.16667 4.66699V3.33366H3.83333V12.667H13.1667V3.33366H11.8333V4.66699H5.16667ZM8.5 6.00033C8.85362 6.00033 9.19276 6.1408 9.44281 6.39085C9.69286 6.6409 9.83333 6.98004 9.83333 7.33366C9.83333 7.68728 9.69286 8.02642 9.44281 8.27647C9.19276 8.52652 8.85362 8.66699 8.5 8.66699C8.14638 8.66699 7.80724 8.52652 7.55719 8.27647C7.30714 8.02642 7.16667 7.68728 7.16667 7.33366C7.16667 6.98004 7.30714 6.6409 7.55719 6.39085C7.80724 6.1408 8.14638 6.00033 8.5 6.00033ZM5.83333 11.3337V10.667C5.83333 9.93366 7.02667 9.33366 8.5 9.33366C9.97333 9.33366 11.1667 9.93366 11.1667 10.667V11.3337H5.83333Z" fill="#3A4753"/>
</svg>
