<svg width="19" height="18" viewBox="0 0 19 18" fill="none" xmlns="http://www.w3.org/2000/svg">
<path d="M9.1 8.47718V14.4461L8.7 14.6452L3.5 12.0622V5.58921L8.7 3L13.9 5.58921V10.2199H13.1V6.48548L9.1 8.47718ZM8.7 3.89627L7.19375 4.64315L11.075 6.59751L12.6062 5.83817L8.7 3.89627ZM8.3 13.556V8.47718L4.3 6.48548V11.5643L8.3 13.556ZM4.79375 5.83817L8.7 7.78008L10.1875 7.04564L6.3 5.09129L4.79375 5.83817ZM11.5 13.4066V12.61H15.5V13.4066H11.5ZM11.5 11.0166H15.5V11.8133H11.5V11.0166ZM9.9 15V14.2033H10.7V15H9.9ZM9.9 11.8133V11.0166H10.7V11.8133H9.9ZM9.9 13.4066V12.61H10.7V13.4066H9.9ZM11.5 15V14.2033H15.5V15H11.5Z" fill="#677888"/>
</svg>
