<svg width="24" height="24" viewBox="0 0 24 24" fill="none" xmlns="http://www.w3.org/2000/svg">
<g clip-path="url(#clip0_9_18620)">
<path d="M22.7146 22.7146L18.0483 18.0466M11.1055 20.9266C12.406 20.9438 13.697 20.7025 14.9035 20.2166C16.11 19.7308 17.208 19.0102 18.1338 18.0966C19.0595 17.183 19.7946 16.0946 20.2963 14.8946C20.798 13.6946 21.0563 12.4069 21.0563 11.1063C21.0563 9.80565 20.798 8.51795 20.2963 7.31796C19.7946 6.11797 19.0595 5.02958 18.1338 4.11598C17.208 3.20238 16.11 2.48176 14.9035 1.99595C13.697 1.51015 12.406 1.26883 11.1055 1.28601C8.52342 1.32013 6.05871 2.36978 4.24489 4.20773C2.43106 6.04568 1.41406 8.52404 1.41406 11.1063C1.41406 13.6886 2.43106 16.1669 4.24489 18.0049C6.05871 19.8428 8.52342 20.8925 11.1055 20.9266Z" stroke="#AC8359" stroke-width="1.71429" stroke-linecap="round" stroke-linejoin="round"/>
<path d="M9.7132 5.58984C9.48587 5.58984 9.26785 5.68015 9.10711 5.8409C8.94636 6.00164 8.85606 6.21966 8.85606 6.44699V8.85727H6.44406C6.21673 8.85727 5.99871 8.94758 5.83797 9.10832C5.67722 9.26907 5.58691 9.48709 5.58691 9.71442V12.5001C5.58691 12.7275 5.67722 12.9455 5.83797 13.1062C5.99871 13.267 6.21673 13.3573 6.44406 13.3573H8.85606V15.7693C8.85606 15.9966 8.94636 16.2146 9.10711 16.3754C9.26785 16.5361 9.48587 16.6264 9.7132 16.6264H12.4972C12.7245 16.6264 12.9425 16.5361 13.1033 16.3754C13.264 16.2146 13.3543 15.9966 13.3543 15.7693V13.3556H15.7646C15.992 13.3556 16.21 13.2653 16.3707 13.1045C16.5315 12.9438 16.6218 12.7257 16.6218 12.4984V9.71442C16.6218 9.48709 16.5315 9.26907 16.3707 9.10832C16.21 8.94758 15.992 8.85727 15.7646 8.85727H13.3561V6.44699C13.3561 6.21966 13.2658 6.00164 13.105 5.8409C12.9443 5.68015 12.7262 5.58984 12.4989 5.58984H9.7132Z" stroke="#AC8359" stroke-width="1.71429" stroke-linecap="round" stroke-linejoin="round"/>
</g>
<defs>
<clipPath id="clip0_9_18620">
<rect width="24" height="24" fill="white"/>
</clipPath>
</defs>
</svg>
