<svg width="20" height="20" viewBox="0 0 20 20" fill="none" xmlns="http://www.w3.org/2000/svg">
<path d="M10 14.167C9.78725 14.1659 9.57742 14.1175 9.38571 14.0253C9.19401 13.933 9.02524 13.7992 8.89166 13.6337L5.38333 9.38366C5.17833 9.1278 5.04932 8.8195 5.01101 8.49388C4.9727 8.16827 5.02664 7.83844 5.16666 7.54199C5.28023 7.28435 5.46556 7.06484 5.70051 6.90968C5.93547 6.75452 6.21012 6.67027 6.49166 6.66699H13.5083C13.7899 6.67027 14.0645 6.75452 14.2995 6.90968C14.5344 7.06484 14.7198 7.28435 14.8333 7.54199C14.9734 7.83844 15.0273 8.16827 14.989 8.49388C14.9507 8.8195 14.8217 9.1278 14.6167 9.38366L11.1083 13.6337C10.9747 13.7992 10.806 13.933 10.6143 14.0253C10.4226 14.1175 10.2127 14.1659 10 14.167Z" fill="#677888"/>
</svg>
