<svg width="18" height="18" viewBox="0 0 18 18" fill="none" xmlns="http://www.w3.org/2000/svg">
<path d="M8.99999 12.1281C8.88333 12.1281 8.77395 12.11 8.67187 12.0739C8.56979 12.0377 8.47499 11.9756 8.3875 11.8875L5.2375 8.7375C5.0625 8.5625 4.9785 8.35833 4.9855 8.125C4.9925 7.89167 5.0765 7.6875 5.2375 7.5125C5.4125 7.3375 5.62046 7.2465 5.86137 7.2395C6.10229 7.2325 6.30995 7.31621 6.48437 7.49063L8.125 9.13125V2.875C8.125 2.62709 8.20899 2.41942 8.377 2.252C8.54499 2.08459 8.75266 2.00059 8.99999 2C9.24733 1.99942 9.45529 2.08342 9.62387 2.252C9.79245 2.42059 9.87616 2.62825 9.87499 2.875V9.13125L11.5156 7.49063C11.6906 7.31563 11.8986 7.23163 12.1395 7.23863C12.3804 7.24563 12.5881 7.33692 12.7625 7.5125C12.9229 7.6875 13.0069 7.89167 13.0145 8.125C13.0221 8.35833 12.9381 8.5625 12.7625 8.7375L9.61249 11.8875C9.52499 11.975 9.4302 12.0371 9.32812 12.0739C9.22604 12.1106 9.11666 12.1287 8.99999 12.1281ZM3.75 16C3.26875 16 2.85692 15.8288 2.5145 15.4864C2.17208 15.144 2.00058 14.7318 2 14.25V12.5C2 12.2521 2.084 12.0444 2.252 11.877C2.42 11.7096 2.62767 11.6256 2.875 11.625C3.12233 11.6244 3.33029 11.7084 3.49887 11.877C3.66746 12.0456 3.75117 12.2533 3.75 12.5V14.25H14.25V12.5C14.25 12.2521 14.334 12.0444 14.502 11.877C14.67 11.7096 14.8777 11.6256 15.125 11.625C15.3723 11.6244 15.5803 11.7084 15.7489 11.877C15.9174 12.0456 16.0012 12.2533 16 12.5V14.25C16 14.7312 15.8288 15.1434 15.4864 15.4864C15.1439 15.8294 14.7318 16.0006 14.25 16H3.75Z" fill="#677888"/>
</svg>
