<svg width="24" height="24" viewBox="0 0 24 24" fill="none" xmlns="http://www.w3.org/2000/svg">
<path d="M3.00039 3.59961C2.84126 3.59961 2.68865 3.66282 2.57613 3.77535C2.4636 3.88787 2.40039 4.04048 2.40039 4.19961C2.40039 4.35874 2.4636 4.51135 2.57613 4.62387C2.68865 4.7364 2.84126 4.79961 3.00039 4.79961H21.0004C21.1595 4.79961 21.3121 4.7364 21.4247 4.62387C21.5372 4.51135 21.6004 4.35874 21.6004 4.19961C21.6004 4.04048 21.5372 3.88787 21.4247 3.77535C21.3121 3.66282 21.1595 3.59961 21.0004 3.59961H3.00039ZM3.00039 10.7996C2.84126 10.7996 2.68865 10.8628 2.57613 10.9753C2.4636 11.0879 2.40039 11.2405 2.40039 11.3996C2.40039 11.5587 2.4636 11.7114 2.57613 11.8239C2.68865 11.9364 2.84126 11.9996 3.00039 11.9996H12.3088C12.6851 11.5434 13.121 11.1397 13.6048 10.7996H3.00039ZM3.00039 14.3996H11.0488C10.9379 14.7919 10.8636 15.1936 10.8268 15.5996H3.00039C2.84126 15.5996 2.68865 15.5364 2.57613 15.4239C2.4636 15.3114 2.40039 15.1587 2.40039 14.9996C2.40039 14.8405 2.4636 14.6879 2.57613 14.5753C2.68865 14.4628 2.84126 14.3996 3.00039 14.3996ZM3.00039 17.9996H11.0488C11.168 18.4188 11.3252 18.8188 11.5204 19.1996H3.00039C2.84126 19.1996 2.68865 19.1364 2.57613 19.0239C2.4636 18.9114 2.40039 18.7587 2.40039 18.5996C2.40039 18.4405 2.4636 18.2879 2.57613 18.1753C2.68865 18.0628 2.84126 17.9996 3.00039 17.9996ZM3.00039 7.19961C2.84126 7.19961 2.68865 7.26282 2.57613 7.37535C2.4636 7.48787 2.40039 7.64048 2.40039 7.79961C2.40039 7.95874 2.4636 8.11135 2.57613 8.22387C2.68865 8.3364 2.84126 8.39961 3.00039 8.39961H21.0004C21.1595 8.39961 21.3121 8.3364 21.4247 8.22387C21.5372 8.11135 21.6004 7.95874 21.6004 7.79961C21.6004 7.64048 21.5372 7.48787 21.4247 7.37535C21.3121 7.26282 21.1595 7.19961 21.0004 7.19961H3.00039ZM22.8004 16.1996C22.8004 17.6318 22.2315 19.0053 21.2188 20.018C20.2061 21.0307 18.8326 21.5996 17.4004 21.5996C15.9682 21.5996 14.5947 21.0307 13.582 20.018C12.5693 19.0053 12.0004 17.6318 12.0004 16.1996C12.0004 14.7674 12.5693 13.3939 13.582 12.3812C14.5947 11.3685 15.9682 10.7996 17.4004 10.7996C18.8326 10.7996 20.2061 11.3685 21.2188 12.3812C22.2315 13.3939 22.8004 14.7674 22.8004 16.1996ZM17.4004 13.1996C17.2413 13.1996 17.0886 13.2628 16.9761 13.3753C16.8636 13.4879 16.8004 13.6405 16.8004 13.7996V16.1996C16.8004 16.3587 16.8636 16.5114 16.9761 16.6239C17.0886 16.7364 17.2413 16.7996 17.4004 16.7996C17.5595 16.7996 17.7121 16.7364 17.8247 16.6239C17.9372 16.5114 18.0004 16.3587 18.0004 16.1996V13.7996C18.0004 13.6405 17.9372 13.4879 17.8247 13.3753C17.7121 13.2628 17.5595 13.1996 17.4004 13.1996ZM17.4004 19.3496C17.5993 19.3496 17.7901 19.2706 17.9307 19.1299C18.0714 18.9893 18.1504 18.7985 18.1504 18.5996C18.1504 18.4007 18.0714 18.2099 17.9307 18.0693C17.7901 17.9286 17.5993 17.8496 17.4004 17.8496C17.2015 17.8496 17.0107 17.9286 16.8701 18.0693C16.7294 18.2099 16.6504 18.4007 16.6504 18.5996C16.6504 18.7985 16.7294 18.9893 16.8701 19.1299C17.0107 19.2706 17.2015 19.3496 17.4004 19.3496Z" fill="#003AAD"/>
</svg>
