<svg width="15" height="16" viewBox="0 0 15 16" fill="none" xmlns="http://www.w3.org/2000/svg">
<path d="M0.75 8C0.75 4.81826 0.75 3.22668 1.73834 2.23834C2.72668 1.25 4.31755 1.25 7.5 1.25C10.6817 1.25 12.2733 1.25 13.2617 2.23834C14.25 3.22668 14.25 4.81755 14.25 8C14.25 11.1817 14.25 12.7733 13.2617 13.7617C12.2733 14.75 10.6824 14.75 7.5 14.75C4.31826 14.75 2.72668 14.75 1.73834 13.7617C0.75 12.7733 0.75 11.1824 0.75 8Z" stroke="#3A4753" stroke-linecap="round" stroke-linejoin="round"/>
<path d="M3.97363 8.01985H8.93026M8.93026 8.01985C8.93026 8.42485 7.39908 9.78693 7.39908 9.78693M8.93026 8.01985C8.93026 7.60348 7.39908 6.2684 7.39908 6.2684M11.0796 5.1543V10.8385" stroke="#3A4753" stroke-linecap="round" stroke-linejoin="round"/>
</svg>
