<svg width="16" height="16" viewBox="0 0 16 16" fill="none" xmlns="http://www.w3.org/2000/svg">
<path d="M7.9998 11.334C7.82961 11.3331 7.66174 11.2944 7.50838 11.2206C7.35501 11.1468 7.22 11.0398 7.11314 10.9073L4.30647 7.50732C4.14246 7.30263 4.03926 7.05599 4.00861 6.7955C3.97797 6.53501 4.02111 6.27115 4.13314 6.03398C4.22399 5.82787 4.37225 5.65226 4.56021 5.52813C4.74818 5.40401 4.9679 5.33661 5.19314 5.33398H10.8065C11.0317 5.33661 11.2514 5.40401 11.4394 5.52813C11.6274 5.65226 11.7756 5.82787 11.8665 6.03398C11.9785 6.27115 12.0216 6.53501 11.991 6.7955C11.9603 7.05599 11.8571 7.30263 11.6931 7.50732L8.88647 10.9073C8.7796 11.0398 8.64459 11.1468 8.49123 11.2206C8.33786 11.2944 8.17 11.3331 7.9998 11.334Z" fill="#DDDFE2"/>
</svg>
